<svg id="Layer_1" data-name="Layer 1" xmlns="http://www.w3.org/2000/svg" viewBox="0 0 89.53 98.18"><defs><style>.cls-1{stroke:#000;stroke-miterlimit:10;}</style></defs><path class="cls-1" d="M49.14,36.13a4.87,4.87,0,0,1-2.85-.55c-1.85-.8-5.95-2.8-9-4.45s-5-2.8-8-4.6-18.5-11-20-12-3.15-2.07-3.15-2.07A75,75,0,0,1,14.84,17c4.5,2.7,7.9,4.79,13.2,7.37s7.85,3.88,11.15,5.33a56.88,56.88,0,0,1,6.2,2.85,13.7,13.7,0,0,1,3,2.3A7.37,7.37,0,0,1,49.14,36.13Z" transform="translate(0.24 0.2)"/><path class="cls-1" d="M30.67,3.38a55.37,55.37,0,0,1,3.6,4.75c2.1,3,3.25,4.8,5.1,7.2s3.8,5,4.85,6.55,2.25,3.55,3.55,5.4a36.12,36.12,0,0,1,2.15,3.45h-.78s.8,2.1.4,2.45a9.71,9.71,0,0,1-2.9-2.7,63.7,63.7,0,0,1-4.2-6.7c-1.3-2.35-2.35-5.1-3.7-7.25s-2.3-3.35-3.5-5.15-1.7-2.7-2.45-4S30.67,3.38,30.67,3.38Z" transform="translate(0.24 0.2)"/><path class="cls-1" d="M52.87,31A17.26,17.26,0,0,1,52,26.15c0-2.57.25-4.67.42-7.22s.63-5.65.68-7.6-.11-3.71-.3-5.55c-.1-1.25-.25-3.5-.25-3.5s0-.3.56.75.44,2.05.74,2.4.25-.75.4,1.6a68.37,68.37,0,0,1,0,7.3c-.1,2.5,0,4-.25,6.4a46.33,46.33,0,0,0-.45,6c.1,1.1-.51.6-.38,1.8A6.18,6.18,0,0,1,52.87,31Z" transform="translate(0.24 0.2)"/><path class="cls-1" d="M64,38.38c.9-.6.9,0,3.2-.6a18,18,0,0,1,5.35-.9,64.85,64.85,0,0,1,8-.4c2.85.15,5.85,0,5.85,0a20.58,20.58,0,0,1-3.15,1c-1.7.36-3.7.61-6.2,1s-4.75.7-6.65.9-2.5.65-3.5.3A22.64,22.64,0,0,0,64.42,39Z" transform="translate(0.24 0.2)"/><path class="cls-1" d="M60.07,42.51a8.83,8.83,0,0,1,2.35,1.4c2,1.4,4.45,2.45,6,3.4a38.87,38.87,0,0,0,5,2.5,34.82,34.82,0,0,0,4,1.35l.75,1s-.85.35-3.1-.4-4.8-1.65-7.35-2.7a50.78,50.78,0,0,1-5.9-2.6A3.65,3.65,0,0,1,60,44.26,2.46,2.46,0,0,1,60.07,42.51Z" transform="translate(0.24 0.2)"/><path class="cls-1" d="M60.47,51.93a14.91,14.91,0,0,1,2.15,2.2,4.77,4.77,0,0,0,0-1.92,17.05,17.05,0,0,0-2.15-2.78c-1.2-1.25-3-2.85-3-2.85s-.4.3,0,1.85a30.14,30.14,0,0,0,1.85,4.75c1,2.45,1.45,3.4,2.8,6.1s1.75,2.9,2.7,5,1.3,3.6,2.5,5.2a45.41,45.41,0,0,1,2.9,5v-1.3a18,18,0,0,0-1.6-3.65c-.7-.9-1.55-1.45-2-2.8s.1-1.1-.6-2.4-1.23-3-2.32-5.35-2-3.65-2.58-4.85A11.5,11.5,0,0,1,60.47,51.93Z" transform="translate(0.24 0.2)"/><path class="cls-1" d="M53.42,94a84.15,84.15,0,0,1-.33-10.53c.2-5.67.53-9.94.33-12.94s-.73-6.13-.8-9.53-.07-5.93,0-8a17.32,17.32,0,0,1,.86-4.33,45.24,45.24,0,0,1,1,6c.06,1.93.06,3.53,0,6.46s.16,4.8,0,7.94-.19,6.46-.32,9.93-.33,8.6-.33,10.4A35.41,35.41,0,0,1,53.42,94Z" transform="translate(0.24 0.2)"/><path class="cls-1" d="M37.22,78.51s6.27-15,8.47-20.8a65.71,65.71,0,0,1,4.66-10.38S48,55.49,45.89,60.47s-5,12.84-6.27,14.84A24.07,24.07,0,0,1,37.22,78.51Z" transform="translate(0.24 0.2)"/><path class="cls-1" d="M16.14,73.28S22.68,66.71,26.61,63s7.47-7.14,10.6-9.94,4.93-4.49,6.27-5.65a27.26,27.26,0,0,1,4.33-2.62,22.17,22.17,0,0,1-2.87,3.87,40.31,40.31,0,0,1-6.4,6.26c-2.8,2.14-9,6.67-12.06,9.6s-6,5.87-7.54,7.14A9.56,9.56,0,0,1,16.14,73.28Z" transform="translate(0.24 0.2)"/><path class="cls-1" d="M3.14,55.68s12.13-4.8,18.06-7.33,10.54-4.77,13-5.82,3.87-1.71,5.4-1.85a26.59,26.59,0,0,1,3.34,0,24.51,24.51,0,0,1-3.27,1.85,88.39,88.39,0,0,1-8.4,3.55C27,47.82,21.14,49.68,17.8,51s-6.66,2.66-9.53,3.6A22.39,22.39,0,0,1,3.14,55.68Z" transform="translate(0.24 0.2)"/><path class="cls-1" d="M84,11.06s-7.2,6.69-10.67,10.14S67.25,27.59,65.8,29s-2.24,2.32-3.27,2.7a11.87,11.87,0,0,1-2.28.56,17.74,17.74,0,0,1,1.8-2.34A55.15,55.15,0,0,1,67,25.08c2.52-2.39,6.11-5.19,8.08-7s4-3.7,5.69-5.09A12.16,12.16,0,0,1,84,11.06Z" transform="translate(0.24 0.2)"/></svg>